# WaveFront *.obj file (generated by CINEMA 4D)

v 0 52.57311248779297 85.06507873535156
v 0 -52.57311248779297 85.06507873535156
v 85.06507873535156 0 52.57311248779297
v 85.06507873535156 -0.00000000000001 -52.57311248779297
v 0 52.57311248779297 -85.06507873535156
v 0 -52.57311248779297 -85.06507873535156
v -85.06507873535156 0 -52.57311248779297
v -85.06507873535156 0 52.57311248779297
v 52.57311248779297 85.06507873535156 0
v -52.57311248779297 85.06507873535156 0
v -52.57311248779297 -85.06507873535156 0
v 52.57311248779297 -85.06507873535156 0
v 20.17741012573242 97.94320678710938 0
v -20.17741012573242 97.94320678710938 0
v 20.17741012573242 73.00255584716797 65.29547119140625
v 40.35482025146484 85.47288513183594 32.64773559570312
v -20.17741012573242 73.00255584716797 65.29547119140625
v -40.35482025146484 85.47288513183594 32.64773559570312
v 85.47288513183594 32.64773559570312 40.35482025146484
v 73.00255584716797 65.29547119140625 20.17741012573242
v 32.64773559570312 40.35482025146484 85.47288513183594
v 65.29547119140625 20.17741012573242 73.00255584716797
v 85.47288513183594 32.64773559570312 -40.35482025146484
v 73.00255584716797 65.29547119140625 -20.17741012573242
v 97.94320678710938 0 20.17741012573242
v 97.94320678710938 0 -20.17741012573242
v 20.17741012573242 73.00255584716797 -65.29547119140625
v 40.35482025146484 85.47288513183594 -32.64773559570312
v 65.29547119140625 20.17741012573242 -73.00255584716797
v 32.64773559570312 40.35482025146484 -85.47288513183594
v -20.17741012573242 73.00255584716797 -65.29547119140625
v -40.35482025146484 85.47288513183594 -32.64773559570312
v -85.47288513183594 32.64773559570312 -40.35482025146484
v -73.00255584716797 65.29547119140625 -20.17741012573242
v -32.64773559570312 40.35482025146484 -85.47288513183594
v -65.29547119140625 20.17741012573242 -73.00255584716797
v -85.47288513183594 32.64773559570312 40.35482025146484
v -73.00255584716797 65.29547119140625 20.17741012573242
v -97.94320678710938 0 -20.17741012573242
v -97.94320678710938 0 20.17741012573242
v -32.64773559570312 40.35482025146484 85.47288513183594
v -65.29547119140625 20.17741012573242 73.00255584716797
v -20.17741012573242 -97.94320678710938 0
v 20.17741012573242 -97.94320678710938 0
v -20.17741012573242 -73.00255584716797 65.29547119140625
v -40.35482025146484 -85.47288513183594 32.64773559570312
v 20.17741012573242 -73.00255584716797 65.29547119140625
v 40.35482025146484 -85.47288513183594 32.64773559570312
v 85.47288513183594 -32.64773559570312 40.35482025146484
v 73.00255584716797 -65.29547119140625 20.17741012573242
v 32.64773559570312 -40.35482025146484 85.47288513183594
v 65.29547119140625 -20.17741012573242 73.00255584716797
v 85.47288513183594 -32.64773559570312 -40.35482025146484
v 73.00255584716797 -65.29547119140625 -20.17741012573242
v 65.29547119140625 -20.17741012573242 -73.00255584716797
v 32.64773559570312 -40.35482025146484 -85.47288513183594
v 20.17741012573242 -73.00255584716797 -65.29547119140625
v 40.35482025146484 -85.47288513183594 -32.64773559570312
v -20.17741012573242 -73.00255584716797 -65.29547119140625
v -40.35482025146484 -85.47288513183594 -32.64773559570312
v -32.64773559570312 -40.35482025146484 -85.47288513183594
v -65.29547119140625 -20.17741012573242 -73.00255584716797
v -85.47288513183594 -32.64773559570312 -40.35482025146484
v -73.00255584716797 -65.29547119140625 -20.17741012573242
v -85.47288513183594 -32.64773559570312 40.35482025146484
v -73.00255584716797 -65.29547119140625 20.17741012573242
v -32.64773559570312 -40.35482025146484 85.47288513183594
v -65.29547119140625 -20.17741012573242 73.00255584716797
v 0 20.17741012573242 97.94320678710938
v 0 -20.17741012573242 97.94320678710938
v 0 20.17741012573242 -97.94320678710938
v 0 -20.17741012573242 -97.94320678710938
v -0.00000000000001 93.417236328125 35.68220901489258
v 57.73502731323242 57.73502731323242 57.73502731323242
v 93.417236328125 35.68220901489258 0
v 57.73502731323242 57.73502731323242 -57.73502731323242
v 0.00000000000001 93.417236328125 -35.68220901489258
v -57.73502731323242 57.73502731323242 -57.73502731323242
v -93.417236328125 35.68220901489258 -0.00000000000001
v -57.73502731323242 57.73502731323242 57.73502731323242
v 0.00000000000001 -93.417236328125 35.68220901489258
v 57.73502731323242 -57.73502731323242 57.73502731323242
v 93.417236328125 -35.68220901489258 0.00000000000001
v 57.73502731323242 -57.73502731323242 -57.73502731323242
v 0 -93.417236328125 -35.68220901489258
v -57.73502731323242 -57.73502731323242 -57.73502731323242
v -93.417236328125 -35.68220901489258 -0.00000000000001
v -57.73502731323242 -57.73502731323242 57.73502731323242
v -35.68220901489258 -0.00000000000001 93.417236328125
v 35.68220901489258 0 93.417236328125
v 35.68220901489258 0.00000000000001 -93.417236328125
v -35.68220901489258 0.00000000000001 -93.417236328125
# 92 vertices

vn -0.5257311463356 0.85065078735352 -0.00000000610148
vn -0.19561414420605 0.9806809425354 -0.00000000510272
vn -0.40085417032242 0.8538356423378 0.33208525180817
vn 0 0 0
vn 0.19561414420605 0.9806809425354 0.00000000510272
vn 0.00000000511199 0.93417233228683 0.35682210326195
vn -0.2052399367094 0.73293942213058 0.64859569072723
vn 0.52573108673096 0.85065084695816 0.00000000610148
vn 0.4008541405201 0.8538356423378 0.33208525180817
vn 0.20523995161057 0.73293942213058 0.64859563112259
vn -0.00000000305074 0.5257311463356 0.85065078735352
vn 0.73293942213058 0.64859569072723 0.20523998141289
vn 0.8538356423378 0.33208528161049 0.40085420012474
vn 0.57735025882721 0.57735025882721 0.57735025882721
vn 0.85065084695816 0.00000000610148 0.52573108673096
vn 0.64859569072723 0.20523998141289 0.73293942213058
vn 0.33208525180817 0.4008541405201 0.8538356423378
vn 0.73293942213058 0.64859569072723 -0.20523996651173
vn 0.8538356423378 0.33208525180817 -0.4008541405201
vn 0.93417233228683 0.35682210326195 0
vn 0.85065078735352 -0.00000000305074 -0.5257311463356
vn 0.9806809425354 -0.00000000255136 -0.19561415910721
vn 0.9806809425354 0.00000000255136 0.19561414420605
vn 0.4008541405201 0.8538356423378 -0.33208525180817
vn 0.2052399367094 0.73293942213058 -0.64859569072723
vn 0.57735025882721 0.57735025882721 -0.57735025882721
vn -0.00000000305074 0.5257311463356 -0.85065078735352
vn 0.33208522200584 0.4008541405201 -0.8538356423378
vn 0.64859563112259 0.20523995161057 -0.73293948173523
vn -0.00000000511199 0.93417233228683 -0.35682210326195
vn -0.4008541405201 0.8538356423378 -0.33208525180817
vn -0.20523998141289 0.73293936252594 -0.64859569072723
vn -0.33208525180817 0.40085417032242 -0.8538356423378
vn -0.57735025882721 0.57735025882721 -0.57735025882721
vn -0.64859563112259 0.20523995161057 -0.73293948173523
vn -0.73293948173523 0.64859563112259 -0.20523996651173
vn -0.8538356423378 0.33208525180817 -0.40085417032242
vn -0.85065084695816 -0.00000000305074 -0.52573108673096
vn -0.9806809425354 0 -0.19561414420605
vn -0.93417233228683 0.35682210326195 0.00000000511199
vn -0.9806809425354 0 0.19561414420605
vn -0.73293942213058 0.64859569072723 0.20523996651173
vn -0.8538356423378 0.33208525180817 0.4008541405201
vn -0.85065078735352 0 0.5257311463356
vn -0.57735025882721 0.57735025882721 0.57735025882721
vn -0.33208525180817 0.4008541405201 0.8538356423378
vn -0.64859563112259 0.20523995161057 0.73293942213058
vn 0.5257311463356 -0.85065078735352 -0.00000000305074
vn 0.19561417400837 -0.9806809425354 -0.00000000510272
vn 0.4008541405201 -0.8538356423378 0.33208525180817
vn -0.19561415910721 -0.9806809425354 0
vn -0.00000000511199 -0.93417233228683 0.35682210326195
vn 0.20523995161057 -0.73293948173523 0.64859563112259
vn -0.5257311463356 -0.85065078735352 0.00000000305074
vn -0.4008541405201 -0.8538356423378 0.33208525180817
vn -0.20523995161057 -0.73293942213058 0.64859563112259
vn 0.00000000610148 -0.52573108673096 0.85065084695816
vn 0.8538356423378 -0.33208525180817 0.4008541405201
vn 0.64859563112259 -0.20523996651173 0.73293948173523
vn 0.73293942213058 -0.64859569072723 0.2052399367094
vn 0.57735025882721 -0.57735025882721 0.57735025882721
vn 0.33208525180817 -0.40085417032242 0.8538356423378
vn 0.93417233228683 -0.35682210326195 -0.00000000511199
vn 0.8538356423378 -0.33208525180817 -0.4008541405201
vn 0.73293942213058 -0.64859563112259 -0.20523995161057
vn 0.64859563112259 -0.20523996651173 -0.73293948173523
vn 0.33208525180817 -0.40085417032242 -0.8538356423378
vn 0.57735025882721 -0.57735025882721 -0.57735025882721
vn 0 -0.52573108673096 -0.85065084695816
vn 0.20523998141289 -0.73293942213058 -0.64859569072723
vn 0.4008541405201 -0.8538356423378 -0.33208525180817
vn -0.20523996651173 -0.73293942213058 -0.64859569072723
vn -0.4008541405201 -0.8538356423378 -0.33208525180817
vn 0 -0.93417233228683 -0.35682210326195
vn -0.33208525180817 -0.4008541405201 -0.8538356423378
vn -0.64859569072723 -0.2052399367094 -0.73293942213058
vn -0.57735025882721 -0.57735025882721 -0.57735025882721
vn -0.8538356423378 -0.33208522200584 -0.4008541405201
vn -0.73293948173523 -0.64859563112259 -0.20523995161057
vn -0.93417233228683 -0.35682210326195 0.00000000511199
vn -0.8538356423378 -0.33208525180817 0.4008541405201
vn -0.73293942213058 -0.64859563112259 0.20523995161057
vn -0.64859563112259 -0.20523996651173 0.73293948173523
vn -0.33208525180817 -0.40085417032242 0.8538356423378
vn -0.57735025882721 -0.57735025882721 0.57735025882721
vn 0 -0.19561415910721 0.9806809425354
vn -0.35682210326195 0.00000000511199 0.93417233228683
vn 0 0.19561417400837 0.9806809425354
vn 0.35682210326195 0 0.93417233228683
vn 0 0.19561414420605 -0.9806809425354
vn 0 -0.19561414420605 -0.9806809425354
vn 0.35682210326195 -0.00000000511199 -0.93417233228683
vn -0.35682210326195 -0.00000000511199 -0.93417233228683
# 93 normals

vt 0 1 0
vt 0.33333334326744 1 0
vt 0.16666667163372 0.66666668653488 0
vt 0.66666668653488 1 0
vt 0.5 0.66666668653488 0
vt 0.33333334326744 0.33333337306976 0
vt 1 1 0
vt 0.83333331346512 0.66666668653488 0
vt 0.66666668653488 0.33333337306976 0
vt 0.5 0 0
# 10 texture coordinates

o Sphere
usemtl default
f 18/3/3 14/2/2 10/1/1
f 73/5/6 13/4/5 14/2/2
f 14/2/2 18/3/3 73/5/6
f 17/6/7 73/5/6 18/3/3
f 16/8/9 9/7/8 13/4/5
f 13/4/5 73/5/6 16/8/9
f 15/9/10 16/8/9 73/5/6
f 73/5/6 17/6/7 15/9/10
f 1/10/11 15/9/10 17/6/7
f 16/3/9 20/2/12 9/1/8
f 74/5/14 19/4/13 20/2/12
f 20/2/12 16/3/9 74/5/14
f 15/6/10 74/5/14 16/3/9
f 22/8/16 3/7/15 19/4/13
f 19/4/13 74/5/14 22/8/16
f 21/9/17 22/8/16 74/5/14
f 74/5/14 15/6/10 21/9/17
f 1/10/11 21/9/17 15/6/10
f 20/3/12 24/2/18 9/1/8
f 75/5/20 23/4/19 24/2/18
f 24/2/18 20/3/12 75/5/20
f 19/6/13 75/5/20 20/3/12
f 26/8/22 4/7/21 23/4/19
f 23/4/19 75/5/20 26/8/22
f 25/9/23 26/8/22 75/5/20
f 75/5/20 19/6/13 25/9/23
f 3/10/15 25/9/23 19/6/13
f 24/3/18 28/2/24 9/1/8
f 76/5/26 27/4/25 28/2/24
f 28/2/24 24/3/18 76/5/26
f 23/6/19 76/5/26 24/3/18
f 30/8/28 5/7/27 27/4/25
f 27/4/25 76/5/26 30/8/28
f 29/9/29 30/8/28 76/5/26
f 76/5/26 23/6/19 29/9/29
f 4/10/21 29/9/29 23/6/19
f 28/3/24 13/2/5 9/1/8
f 77/5/30 14/4/2 13/2/5
f 13/2/5 28/3/24 77/5/30
f 27/6/25 77/5/30 28/3/24
f 32/8/31 10/7/1 14/4/2
f 14/4/2 77/5/30 32/8/31
f 31/9/32 32/8/31 77/5/30
f 77/5/30 27/6/25 31/9/32
f 5/10/27 31/9/32 27/6/25
f 35/3/33 31/2/32 5/1/27
f 78/5/34 32/4/31 31/2/32
f 31/2/32 35/3/33 78/5/34
f 36/6/35 78/5/34 35/3/33
f 34/8/36 10/7/1 32/4/31
f 32/4/31 78/5/34 34/8/36
f 33/9/37 34/8/36 78/5/34
f 78/5/34 36/6/35 33/9/37
f 7/10/38 33/9/37 36/6/35
f 39/3/39 33/2/37 7/1/38
f 79/5/40 34/4/36 33/2/37
f 33/2/37 39/3/39 79/5/40
f 40/6/41 79/5/40 39/3/39
f 38/8/42 10/7/1 34/4/36
f 34/4/36 79/5/40 38/8/42
f 37/9/43 38/8/42 79/5/40
f 79/5/40 40/6/41 37/9/43
f 8/10/44 37/9/43 40/6/41
f 38/3/42 18/2/3 10/1/1
f 80/5/45 17/4/7 18/2/3
f 18/2/3 38/3/42 80/5/45
f 37/6/43 80/5/45 38/3/42
f 41/8/46 1/7/11 17/4/7
f 17/4/7 80/5/45 41/8/46
f 42/9/47 41/8/46 80/5/45
f 80/5/45 37/6/43 42/9/47
f 8/10/44 42/9/47 37/6/43
f 48/3/50 44/2/49 12/1/48
f 81/5/52 43/4/51 44/2/49
f 44/2/49 48/3/50 81/5/52
f 47/6/53 81/5/52 48/3/50
f 46/8/55 11/7/54 43/4/51
f 43/4/51 81/5/52 46/8/55
f 45/9/56 46/8/55 81/5/52
f 81/5/52 47/6/53 45/9/56
f 2/10/57 45/9/56 47/6/53
f 52/3/59 49/2/58 3/1/15
f 82/5/61 50/4/60 49/2/58
f 49/2/58 52/3/59 82/5/61
f 51/6/62 82/5/61 52/3/59
f 48/8/50 12/7/48 50/4/60
f 50/4/60 82/5/61 48/8/50
f 47/9/53 48/8/50 82/5/61
f 82/5/61 51/6/62 47/9/53
f 2/10/57 47/9/53 51/6/62
f 49/3/58 25/2/23 3/1/15
f 83/5/63 26/4/22 25/2/23
f 25/2/23 49/3/58 83/5/63
f 50/6/60 83/5/63 49/3/58
f 53/8/64 4/7/21 26/4/22
f 26/4/22 83/5/63 53/8/64
f 54/9/65 53/8/64 83/5/63
f 83/5/63 50/6/60 54/9/65
f 12/10/48 54/9/65 50/6/60
f 53/3/64 55/2/66 4/1/21
f 84/5/68 56/4/67 55/2/66
f 55/2/66 53/3/64 84/5/68
f 54/6/65 84/5/68 53/3/64
f 57/8/70 6/7/69 56/4/67
f 56/4/67 84/5/68 57/8/70
f 58/9/71 57/8/70 84/5/68
f 84/5/68 54/6/65 58/9/71
f 12/10/48 58/9/71 54/6/65
f 57/3/70 59/2/72 6/1/69
f 85/5/74 60/4/73 59/2/72
f 59/2/72 57/3/70 85/5/74
f 58/6/71 85/5/74 57/3/70
f 43/8/51 11/7/54 60/4/73
f 60/4/73 85/5/74 43/8/51
f 44/9/49 43/8/51 85/5/74
f 85/5/74 58/6/71 44/9/49
f 12/10/48 44/9/49 58/6/71
f 59/3/72 61/2/75 6/1/69
f 86/5/77 62/4/76 61/2/75
f 61/2/75 59/3/72 86/5/77
f 60/6/73 86/5/77 59/3/72
f 63/8/78 7/7/38 62/4/76
f 62/4/76 86/5/77 63/8/78
f 64/9/79 63/8/78 86/5/77
f 86/5/77 60/6/73 64/9/79
f 11/10/54 64/9/79 60/6/73
f 63/3/78 39/2/39 7/1/38
f 87/5/80 40/4/41 39/2/39
f 39/2/39 63/3/78 87/5/80
f 64/6/79 87/5/80 63/3/78
f 65/8/81 8/7/44 40/4/41
f 40/4/41 87/5/80 65/8/81
f 66/9/82 65/8/81 87/5/80
f 87/5/80 64/6/79 66/9/82
f 11/10/54 66/9/82 64/6/79
f 65/3/81 68/2/83 8/1/44
f 88/5/85 67/4/84 68/2/83
f 68/2/83 65/3/81 88/5/85
f 66/6/82 88/5/85 65/3/81
f 45/8/56 2/7/57 67/4/84
f 67/4/84 88/5/85 45/8/56
f 46/9/55 45/8/56 88/5/85
f 88/5/85 66/6/82 46/9/55
f 11/10/54 46/9/55 66/6/82
f 70/3/86 67/2/84 2/1/57
f 89/5/87 68/4/83 67/2/84
f 67/2/84 70/3/86 89/5/87
f 69/6/88 89/5/87 70/3/86
f 42/8/47 8/7/44 68/4/83
f 68/4/83 89/5/87 42/8/47
f 41/9/46 42/8/47 89/5/87
f 89/5/87 69/6/88 41/9/46
f 1/10/11 41/9/46 69/6/88
f 22/3/16 52/2/59 3/1/15
f 90/5/89 51/4/62 52/2/59
f 52/2/59 22/3/16 90/5/89
f 21/6/17 90/5/89 22/3/16
f 70/8/86 2/7/57 51/4/62
f 51/4/62 90/5/89 70/8/86
f 69/9/88 70/8/86 90/5/89
f 90/5/89 21/6/17 69/9/88
f 1/10/11 69/9/88 21/6/17
f 30/3/28 71/2/90 5/1/27
f 91/5/92 72/4/91 71/2/90
f 71/2/90 30/3/28 91/5/92
f 29/6/29 91/5/92 30/3/28
f 56/8/67 6/7/69 72/4/91
f 72/4/91 91/5/92 56/8/67
f 55/9/66 56/8/67 91/5/92
f 91/5/92 29/6/29 55/9/66
f 4/10/21 55/9/66 29/6/29
f 71/3/90 35/2/33 5/1/27
f 92/5/93 36/4/35 35/2/33
f 35/2/33 71/3/90 92/5/93
f 72/6/91 92/5/93 71/3/90
f 62/8/76 7/7/38 36/4/35
f 36/4/35 92/5/93 62/8/76
f 61/9/75 62/8/76 92/5/93
f 92/5/93 72/6/91 61/9/75
f 6/10/69 61/9/75 72/6/91

